<svg xmlns="http://www.w3.org/2000/svg" width="1920" height="1024" preserveAspectRatio="none" viewBox="0 0 1920 1024"><g mask="url(&quot;#a&quot;)" fill="none"><g mask="url(&quot;#b&quot;)"><path d="M1610 530h-60m360-40-20 20-20 20h-100m-320 20-20-20h-60m440-20-20-20h-160m-120 60-20-20m-260 20-20-20h-60l-20 20h-20m420 0-20-20m-200 20-20-20h-60m440 0-20-20h-60m360 0-20-20h-40l-20 20h-180l-20 20h-60l-20 20h-380" stroke="url(&quot;#c&quot;)" stroke-width="3.33"/><path d="M1205 550a5 5 0 1 0 10 0 5 5 0 1 0-10 0zm340-20a5 5 0 1 0 10 0 5 5 0 1 0-10 0zm220 0a5 5 0 1 0 10 0 5 5 0 1 0-10 0zm-400 0a5 5 0 1 0 10 0 5 5 0 1 0-10 0zm260-40a5 5 0 1 0 10 0 5 5 0 1 0-10 0zm-140 40a5 5 0 1 0 10 0 5 5 0 1 0-10 0zm-380 20a5 5 0 1 0 10 0 5 5 0 1 0-10 0zm400-20a5 5 0 1 0 10 0 5 5 0 1 0-10 0zm-280 0a5 5 0 1 0 10 0 5 5 0 1 0-10 0zm360-20a5 5 0 1 0 10 0 5 5 0 1 0-10 0z" fill="url(&quot;#c&quot;)"/><path d="m1290 610-20-20h-140m-240 20-20-20h-80l-20 20h-60m600 0-20-20-20-20h-60m-160 40-20 20h-60m-20-20-20 20m60-20-20-20h-40m780-40-20-20m-780 80-20-20-20-20h-40m-180 60-20-20h-20l-20-20H390l-20-20-20-20h-20l-20-20-20-20h-60m1220 60-20 20h-60l-20 20m380-80h-20m-220 40-20 20h-20m-780 40-20-20-20-20h-20l-20-20H450m620 40-20 20m280-20-20-20m-300 20-20-20-20-20m980-40-20 20h-160l-20-20h-20l-20 20h-100l-20 20h-220l-20 20-20 20H790l-20 20H630" stroke="url(&quot;#c&quot;)" stroke-width="3.33"/><path d="M625 630a5 5 0 1 0 10 0 5 5 0 1 0-10 0zm500-40a5 5 0 1 0 10 0 5 5 0 1 0-10 0zm-420 20a5 5 0 1 0 10 0 5 5 0 1 0-10 0zm500-40a5 5 0 1 0 10 0 5 5 0 1 0-10 0zm-240 60a5 5 0 1 0 10 0 5 5 0 1 0-10 0zm-40 0a5 5 0 1 0 10 0 5 5 0 1 0-10 0zm0-40a5 5 0 1 0 10 0 5 5 0 1 0-10 0zm760-60a5 5 0 1 0 10 0 5 5 0 1 0-10 0zm-860 40a5 5 0 1 0 10 0 5 5 0 1 0-10 0zm-600-60a5 5 0 1 0 10 0 5 5 0 1 0-10 0zm1120 100a5 5 0 1 0 10 0 5 5 0 1 0-10 0zm360-80a5 5 0 1 0 10 0 5 5 0 1 0-10 0zm-260 60a5 5 0 1 0 10 0 5 5 0 1 0-10 0zM445 570a5 5 0 1 0 10 0 5 5 0 1 0-10 0zm600 60a5 5 0 1 0 10 0 5 5 0 1 0-10 0zm260-40a5 5 0 1 0 10 0 5 5 0 1 0-10 0zm-340-20a5 5 0 1 0 10 0 5 5 0 1 0-10 0z" fill="url(&quot;#c&quot;)"/><path d="m870 630-20 20h-60l-20 20H550m720-40-20 20h-140l-20 20h-60m420-60-20 20h-40m400-60-20 20h-160M570 650l-20-20h-40l-20-20h-20m1280-40-20-20m160 20-20 20h-40M610 650l-20-20m320 20h-40l-20 20h-60m1020-100-20 20m-280 0h-20m-380 40h-40m240 0-20 20h-20m640-80-20 20m-500 20h-20m580-40h-340l-20 20h-80l-20 20h-100l-20 20h-260l-20 20H910l-20-20H790l-20 20H550" stroke="url(&quot;#c&quot;)" stroke-width="3.33"/><path d="M545 650a5 5 0 1 0 10 0 5 5 0 1 0-10 0zm0 20a5 5 0 1 0 10 0 5 5 0 1 0-10 0zm480 0a5 5 0 1 0 10 0 5 5 0 1 0-10 0zm360-40a5 5 0 1 0 10 0 5 5 0 1 0-10 0zm220-40a5 5 0 1 0 10 0 5 5 0 1 0-10 0zM465 610a5 5 0 1 0 10 0 5 5 0 1 0-10 0zm1260-60a5 5 0 1 0 10 0 5 5 0 1 0-10 0zm100 40a5 5 0 1 0 10 0 5 5 0 1 0-10 0zM585 630a5 5 0 1 0 10 0 5 5 0 1 0-10 0zm200 40a5 5 0 1 0 10 0 5 5 0 1 0-10 0zm1000-80a5 5 0 1 0 10 0 5 5 0 1 0-10 0zm-300 0a5 5 0 1 0 10 0 5 5 0 1 0-10 0zm-420 40a5 5 0 1 0 10 0 5 5 0 1 0-10 0zm200 20a5 5 0 1 0 10 0 5 5 0 1 0-10 0zm620-60a5 5 0 1 0 10 0 5 5 0 1 0-10 0zm-520 20a5 5 0 1 0 10 0 5 5 0 1 0-10 0z" fill="url(&quot;#c&quot;)"/><path d="m1790 450-20 20m80-20-20 20h-40m100-20-20 20h-20l-20 20h-20m-120-40-20 20h-40m-160 40-20-20h-60m320-40-20 20m260-20h-320l-20 20-20 20h-80l-20 20h-40" stroke="url(&quot;#c&quot;)" stroke-width="3.33"/><path d="M1445 510a5 5 0 1 0 10 0 5 5 0 1 0-10 0zm320-40a5 5 0 1 0 10 0 5 5 0 1 0-10 0zm20 0a5 5 0 1 0 10 0 5 5 0 1 0-10 0zm20 20a5 5 0 1 0 10 0 5 5 0 1 0-10 0zm-180-20a5 5 0 1 0 10 0 5 5 0 1 0-10 0zm-240 20a5 5 0 1 0 10 0 5 5 0 1 0-10 0zm300-20a5 5 0 1 0 10 0 5 5 0 1 0-10 0z" fill="url(&quot;#c&quot;)"/><path d="M1930 590h-20m-420 40h-40m500-40h-20l-20 20h-400l-20 20-20 20h-140" stroke="url(&quot;#c&quot;)" stroke-width="3.33"/><path d="M1325 650a5 5 0 1 0 10 0 5 5 0 1 0-10 0zm580-60a5 5 0 1 0 10 0 5 5 0 1 0-10 0zm-460 40a5 5 0 1 0 10 0 5 5 0 1 0-10 0z" fill="url(&quot;#c&quot;)"/><path d="m1450 410-20-20h-40l-20-20m0 20-20 20h-100l-20-20m180 20-20 20h-60m580 0-20-20h-120m-220 0-20 20m-180-40-20-20h-20m160 40-20 20h-40l-20 20m180-40-20 20-20 20h-120l-20 20h-60m620-40h-360l-20-20h-180l-20-20h-40" stroke="url(&quot;#c&quot;)" stroke-width="3.33"/><path d="M1325 390a5 5 0 1 0 10 0 5 5 0 1 0-10 0zm40-20a5 5 0 1 0 10 0 5 5 0 1 0-10 0zm-140 20a5 5 0 1 0 10 0 5 5 0 1 0-10 0zm100 40a5 5 0 1 0 10 0 5 5 0 1 0-10 0zm440-20a5 5 0 1 0 10 0 5 5 0 1 0-10 0zm-240 20a5 5 0 1 0 10 0 5 5 0 1 0-10 0zm-220-60a5 5 0 1 0 10 0 5 5 0 1 0-10 0zm80 80a5 5 0 1 0 10 0 5 5 0 1 0-10 0zm-60 20a5 5 0 1 0 10 0 5 5 0 1 0-10 0z" fill="url(&quot;#c&quot;)"/><path d="m1930 630-20 20h-20m-160-20-20 20h-120m-780 40-20 20H670m500-40-20 20h-20l-20 20h-20m-260-20-20 20m740-80-20 20h-20l-20 20m260-40-20 20-20 20m-420 0-20 20h-100m-920 20-20 20m640-40-20 20h-20m480-40-20 20m-800 0-20-20H310l-20-20h-20l-20 20m1560-40-20 20h-40m80-20-20 20m-800 20-20 20h-60l-20 20h-20m-480-20-20 20-20 20h-40m240-40-20 20h-60l-20 20h-20m-20-40-20 20-20 20m-20-40-20 20h-20m320-20-20 20h-60l-20 20-20 20H370m520-60-20-20m40 20-20-20m1060-60-20 20h-420l-20 20-20 20h-340l-20 20h-80l-20-20h-80l-20 20H310l-20 20H190" stroke="url(&quot;#c&quot;)" stroke-width="3.33"/><path d="M185 710a5 5 0 1 0 10 0 5 5 0 1 0-10 0zm1700-60a5 5 0 1 0 10 0 5 5 0 1 0-10 0zm-300 0a5 5 0 1 0 10 0 5 5 0 1 0-10 0zm-920 60a5 5 0 1 0 10 0 5 5 0 1 0-10 0zm420 0a5 5 0 1 0 10 0 5 5 0 1 0-10 0zm-280 0a5 5 0 1 0 10 0 5 5 0 1 0-10 0zm680-40a5 5 0 1 0 10 0 5 5 0 1 0-10 0zm220 0a5 5 0 1 0 10 0 5 5 0 1 0-10 0zm-540 20a5 5 0 1 0 10 0 5 5 0 1 0-10 0zm-940 40a5 5 0 1 0 10 0 5 5 0 1 0-10 0zm600-20a5 5 0 1 0 10 0 5 5 0 1 0-10 0zm460-20a5 5 0 1 0 10 0 5 5 0 1 0-10 0zM245 670a5 5 0 1 0 10 0 5 5 0 1 0-10 0zm1500-20a5 5 0 1 0 10 0 5 5 0 1 0-10 0zm60 0a5 5 0 1 0 10 0 5 5 0 1 0-10 0zm-920 60a5 5 0 1 0 10 0 5 5 0 1 0-10 0zm-560 20a5 5 0 1 0 10 0 5 5 0 1 0-10 0zm120 0a5 5 0 1 0 10 0 5 5 0 1 0-10 0zm-60 0a5 5 0 1 0 10 0 5 5 0 1 0-10 0zm-60-20a5 5 0 1 0 10 0 5 5 0 1 0-10 0zm40 40a5 5 0 1 0 10 0 5 5 0 1 0-10 0zm500-80a5 5 0 1 0 10 0 5 5 0 1 0-10 0zm20 0a5 5 0 1 0 10 0 5 5 0 1 0-10 0z" fill="url(&quot;#c&quot;)"/><path d="m1270 330-20 20h-80m-360-40-20-20m720 100-20-20h-20l-20-20m0 20h-60m-80-40-20 20h-20l-20 20h-60m280 20h-20m-340-80-20 20H990m-220-20-20 20h-20l-20 20h-40l-20-20h-20l-20 20m340-40-20-20h-80m-180 0-20 20h-20m360 0-20-20h-20l-20-20H830m780 140-20-20-20-20h-60l-20-20h-20m-620-40-20 20h-40m600 20h-40m-460-40-20 20h-20m980 60-20-20h-160l-20 20h-20l-20-20-20-20h-60m-180-20-20 20m640 60-20-20h-160l-20 20h-160l-20-20h-100l-20-20-20-20h-40l-20-20h-220l-20-20H710l-20-20h-60l-20 20h-20" stroke="url(&quot;#c&quot;)" stroke-width="3.33"/><path d="M585 310a5 5 0 1 0 10 0 5 5 0 1 0-10 0zm580 40a5 5 0 1 0 10 0 5 5 0 1 0-10 0zm-380-60a5 5 0 1 0 10 0 5 5 0 1 0-10 0zm660 60a5 5 0 1 0 10 0 5 5 0 1 0-10 0zm-60 20a5 5 0 1 0 10 0 5 5 0 1 0-10 0zm-200 0a5 5 0 1 0 10 0 5 5 0 1 0-10 0zm260 20a5 5 0 1 0 10 0 5 5 0 1 0-10 0zm-460-60a5 5 0 1 0 10 0 5 5 0 1 0-10 0zm-380 20a5 5 0 1 0 10 0 5 5 0 1 0-10 0zm240-60a5 5 0 1 0 10 0 5 5 0 1 0-10 0zm-220 20a5 5 0 1 0 10 0 5 5 0 1 0-10 0zm200-40a5 5 0 1 0 10 0 5 5 0 1 0-10 0zm640 80a5 5 0 1 0 10 0 5 5 0 1 0-10 0zm-680-20a5 5 0 1 0 10 0 5 5 0 1 0-10 0zm560 20a5 5 0 1 0 10 0 5 5 0 1 0-10 0zm-500-20a5 5 0 1 0 10 0 5 5 0 1 0-10 0zm660 20a5 5 0 1 0 10 0 5 5 0 1 0-10 0zm-200 0a5 5 0 1 0 10 0 5 5 0 1 0-10 0z" fill="url(&quot;#c&quot;)"/><path d="m230 770-20-20m100 0-20-20h-20l-20 20h-20m720-20-20-20m600-20-20-20m-420 60-20 20H950m900-80-20-20m-360 40-20 20h-40l-20 20h-220m-600 40-20-20m620-40h-40m-520 40h-40m1120-60-20-20h-140m-520 60-20-20h-40m560-20-20 20h-20m400-40-20-20M290 750l-20 20m1100-60-20-20h-40m-240 40-20-20m360-20h-40m-700 40h-80m-260 20-20 20h-20m1460-100h-20m-700 60-20-20m940-60-20 20h-180l-20 20h-320l-20 20h-220l-20 20H670l-20 20h-40l-20 20H350l-20-20h-60l-20 20h-40" stroke="url(&quot;#c&quot;)" stroke-width="3.33"/><path d="M205 770a5 5 0 1 0 10 0 5 5 0 1 0-10 0zm0-20a5 5 0 1 0 10 0 5 5 0 1 0-10 0zm20 0a5 5 0 1 0 10 0 5 5 0 1 0-10 0zm700-40a5 5 0 1 0 10 0 5 5 0 1 0-10 0zm580-40a5 5 0 1 0 10 0 5 5 0 1 0-10 0zm-560 80a5 5 0 1 0 10 0 5 5 0 1 0-10 0zm880-100a5 5 0 1 0 10 0 5 5 0 1 0-10 0zm-660 80a5 5 0 1 0 10 0 5 5 0 1 0-10 0zm-620 20a5 5 0 1 0 10 0 5 5 0 1 0-10 0zm580-40a5 5 0 1 0 10 0 5 5 0 1 0-10 0zm-560 40a5 5 0 1 0 10 0 5 5 0 1 0-10 0zm960-80a5 5 0 1 0 10 0 5 5 0 1 0-10 0zm-580 40a5 5 0 1 0 10 0 5 5 0 1 0-10 0zm520 0a5 5 0 1 0 10 0 5 5 0 1 0-10 0zm380-60a5 5 0 1 0 10 0 5 5 0 1 0-10 0zM265 770a5 5 0 1 0 10 0 5 5 0 1 0-10 0zm1040-80a5 5 0 1 0 10 0 5 5 0 1 0-10 0zm-260 20a5 5 0 1 0 10 0 5 5 0 1 0-10 0zm320-20a5 5 0 1 0 10 0 5 5 0 1 0-10 0zm-780 40a5 5 0 1 0 10 0 5 5 0 1 0-10 0zm-300 40a5 5 0 1 0 10 0 5 5 0 1 0-10 0zm1440-100a5 5 0 1 0 10 0 5 5 0 1 0-10 0zm-720 40a5 5 0 1 0 10 0 5 5 0 1 0-10 0z" fill="url(&quot;#c&quot;)"/><path d="m1750 350-20-20h-40M930 230l-20 20h-20m80 0-20 20m140 20h-40m-20-20h-20m920 100-20-20h-20M870 230l-20 20h-20m820 80-20 20h-20m180 0-20-20h-20l-20-20h-100m-640-60-20 20m640 60-20-20h-20m100 40h-20m220 20h-20M950 250h-20m1020 120h-80l-20-20h-180l-20-20h-260l-20-20h-220l-20-20h-40l-20-20h-40l-20-20h-60l-20-20H830l-20 20" stroke="url(&quot;#c&quot;)" stroke-width="3.33"/><path d="M805 250a5 5 0 1 0 10 0 5 5 0 1 0-10 0zm880 80a5 5 0 1 0 10 0 5 5 0 1 0-10 0zm-800-80a5 5 0 1 0 10 0 5 5 0 1 0-10 0zm60 20a5 5 0 1 0 10 0 5 5 0 1 0-10 0zm100 20a5 5 0 1 0 10 0 5 5 0 1 0-10 0zm-40-20a5 5 0 1 0 10 0 5 5 0 1 0-10 0zm880 80a5 5 0 1 0 10 0 5 5 0 1 0-10 0zM825 250a5 5 0 1 0 10 0 5 5 0 1 0-10 0zm780 100a5 5 0 1 0 10 0 5 5 0 1 0-10 0zm20-40a5 5 0 1 0 10 0 5 5 0 1 0-10 0zm-660-40a5 5 0 1 0 10 0 5 5 0 1 0-10 0zm600 40a5 5 0 1 0 10 0 5 5 0 1 0-10 0zm80 40a5 5 0 1 0 10 0 5 5 0 1 0-10 0zm200 20a5 5 0 1 0 10 0 5 5 0 1 0-10 0zM925 250a5 5 0 1 0 10 0 5 5 0 1 0-10 0z" fill="url(&quot;#c&quot;)"/><path d="m590 210-20 20H350l-20 20H190m1260 60-20-20h-20M410 210l-20-20h-80l-20-20h-60l-20-20h-20l-20-20h-40m200 80-20 20h-20m940 60-20-20h-60l-20-20h-20m580 40-20-20h-340m-600-40-20 20H610m-320-40H130m1380 100-20-20m320 40h-20m-320-20-20-20m320 0-20 20M450 210l-20-20h-20l-20-20m1400 140h-20M770 230l-20-20h-20m-240 0-20-20h-20l-20-20h-20l-20-20h-60l-20 20m1000 120-20-20h-60l-20-20h-60m560 40-20-20m-880-40-20-20h-20m760 100-20-20m40 0h-20m-780-60-20 20-20 20H550l-20-20h-40m1460 100-20-20h-120l-20-20-20-20h-220l-20 20h-140l-20-20h-220l-20-20h-40l-20-20h-40l-20-20h-60l-20-20H830l-20 20H610l-20-20H290l-20 20H170" stroke="url(&quot;#c&quot;)" stroke-width="3.33"/><path d="M165 230a5 5 0 1 0 10 0 5 5 0 1 0-10 0zm20 20a5 5 0 1 0 10 0 5 5 0 1 0-10 0zm1220 40a5 5 0 1 0 10 0 5 5 0 1 0-10 0zM125 130a5 5 0 1 0 10 0 5 5 0 1 0-10 0zm160 100a5 5 0 1 0 10 0 5 5 0 1 0-10 0zm820 20a5 5 0 1 0 10 0 5 5 0 1 0-10 0zm220 20a5 5 0 1 0 10 0 5 5 0 1 0-10 0zm-720-20a5 5 0 1 0 10 0 5 5 0 1 0-10 0zm-480-40a5 5 0 1 0 10 0 5 5 0 1 0-10 0zm1360 80a5 5 0 1 0 10 0 5 5 0 1 0-10 0zm300 40a5 5 0 1 0 10 0 5 5 0 1 0-10 0zm-340-40a5 5 0 1 0 10 0 5 5 0 1 0-10 0zm300 20a5 5 0 1 0 10 0 5 5 0 1 0-10 0zM385 170a5 5 0 1 0 10 0 5 5 0 1 0-10 0zm1380 140a5 5 0 1 0 10 0 5 5 0 1 0-10 0zM725 210a5 5 0 1 0 10 0 5 5 0 1 0-10 0zm-420-40a5 5 0 1 0 10 0 5 5 0 1 0-10 0zm840 80a5 5 0 1 0 10 0 5 5 0 1 0-10 0zm540 20a5 5 0 1 0 10 0 5 5 0 1 0-10 0zm-920-60a5 5 0 1 0 10 0 5 5 0 1 0-10 0zm740 80a5 5 0 1 0 10 0 5 5 0 1 0-10 0zm20 0a5 5 0 1 0 10 0 5 5 0 1 0-10 0zM485 250a5 5 0 1 0 10 0 5 5 0 1 0-10 0z" fill="url(&quot;#c&quot;)"/><path d="m1330 750-20 20h-40l-20 20h-40l-20 20h-40m-380-60-20 20h-80l-20 20h-40l-20 20h-40m620-60-20 20h-40l-20 20m-740 0-20 20h-40m1520-120-20 20h-40m-540 40-20 20h-20l-20 20h-40l-20 20h-20m-880-20-20 20-20 20h-20m1320-80-20-20h-20m-580 20-20 20h-20l-20 20h-60m-460 0-20 20h-40l-20 20m100-40-20 20-20 20h-40m740-80-20 20h-60m540-20-20 20h-40l-20 20h-40l-20 20h-40m-820-20-20 20-20 20m180-40-20 20-20 20H390m1440-140-20 20m-400 40-20 20-20 20h-40l-20 20h-40m-200-40-20 20h-20m-600 0-20 20h-20m1100-80-20 20m380-60-20 20M450 790l-20 20m1520-120h-200l-20 20h-160l-20 20h-80l-20 20h-340l-20 20H950l-20-20H670l-20 20h-40l-20 20H170" stroke="url(&quot;#c&quot;)" stroke-width="3.33"/><path d="M165 790a5 5 0 1 0 10 0 5 5 0 1 0-10 0zm980 20a5 5 0 1 0 10 0 5 5 0 1 0-10 0zm-600 0a5 5 0 1 0 10 0 5 5 0 1 0-10 0zm540-20a5 5 0 1 0 10 0 5 5 0 1 0-10 0zm-800 20a5 5 0 1 0 10 0 5 5 0 1 0-10 0zm1460-100a5 5 0 1 0 10 0 5 5 0 1 0-10 0zm-680 100a5 5 0 1 0 10 0 5 5 0 1 0-10 0zm-940 20a5 5 0 1 0 10 0 5 5 0 1 0-10 0zm1280-100a5 5 0 1 0 10 0 5 5 0 1 0-10 0zm-700 60a5 5 0 1 0 10 0 5 5 0 1 0-10 0zm-540 40a5 5 0 1 0 10 0 5 5 0 1 0-10 0zm20 0a5 5 0 1 0 10 0 5 5 0 1 0-10 0zm660-60a5 5 0 1 0 10 0 5 5 0 1 0-10 0zm360 40a5 5 0 1 0 10 0 5 5 0 1 0-10 0zm-860 20a5 5 0 1 0 10 0 5 5 0 1 0-10 0zm40 0a5 5 0 1 0 10 0 5 5 0 1 0-10 0zm1420-120a5 5 0 1 0 10 0 5 5 0 1 0-10 0zm-540 100a5 5 0 1 0 10 0 5 5 0 1 0-10 0zm-240-20a5 5 0 1 0 10 0 5 5 0 1 0-10 0zm-640 20a5 5 0 1 0 10 0 5 5 0 1 0-10 0zm1080-60a5 5 0 1 0 10 0 5 5 0 1 0-10 0zm360-40a5 5 0 1 0 10 0 5 5 0 1 0-10 0zM425 810a5 5 0 1 0 10 0 5 5 0 1 0-10 0z" fill="url(&quot;#c&quot;)"/><path d="m1870 730-20-20m40 0h-20m-360 40h-20m40 0-20 20m440-60h-60l-20 20h-300l-20 20h-40l-20 20h-60" stroke="url(&quot;#c&quot;)" stroke-width="3.33"/><path d="M1425 770a5 5 0 1 0 10 0 5 5 0 1 0-10 0zm420-60a5 5 0 1 0 10 0 5 5 0 1 0-10 0zm20 0a5 5 0 1 0 10 0 5 5 0 1 0-10 0zm-380 40a5 5 0 1 0 10 0 5 5 0 1 0-10 0zm20 20a5 5 0 1 0 10 0 5 5 0 1 0-10 0z" fill="url(&quot;#c&quot;)"/><path d="m1830 310-20-20m-320-40-20-20m-40 20-20-20m320 40h-20m40 0-20-20m-220 0-20-20m-40 20-20-20m520 80h-140l-20-20-20-20h-40l-20-20h-320" stroke="url(&quot;#c&quot;)" stroke-width="3.33"/><path d="M1385 250a5 5 0 1 0 10 0 5 5 0 1 0-10 0zm420 40a5 5 0 1 0 10 0 5 5 0 1 0-10 0zm-340-60a5 5 0 1 0 10 0 5 5 0 1 0-10 0zm-60 0a5 5 0 1 0 10 0 5 5 0 1 0-10 0zm300 40a5 5 0 1 0 10 0 5 5 0 1 0-10 0zm20-20a5 5 0 1 0 10 0 5 5 0 1 0-10 0zm-240-20a5 5 0 1 0 10 0 5 5 0 1 0-10 0zm-60 0a5 5 0 1 0 10 0 5 5 0 1 0-10 0z" fill="url(&quot;#c&quot;)"/><path d="m1010 790-20 20h-60m420 20-20-20m-200 40h-60m80 0-20-20-20-20m260 20-20-20m60-20h-20m-360 20h-20l-20 20h-80l-20 20h-20m920-100-20 20h-60m-660 60h-40l-20 20h-80m920-100-20 20h-20m-620 60h-20m240-20h-20m580-80h-60l-20 20h-300l-20 20-20 20h-120l-20 20-20 20h-200l-20 20h-20l-20-20h-60l-20-20-20-20h-40" stroke="url(&quot;#c&quot;)" stroke-width="3.33"/><path d="M965 790a5 5 0 1 0 10 0 5 5 0 1 0-10 0zm-40 20a5 5 0 1 0 10 0 5 5 0 1 0-10 0zm400 0a5 5 0 1 0 10 0 5 5 0 1 0-10 0zm-260 40a5 5 0 1 0 10 0 5 5 0 1 0-10 0zm40-40a5 5 0 1 0 10 0 5 5 0 1 0-10 0zm240 0a5 5 0 1 0 10 0 5 5 0 1 0-10 0zm40-20a5 5 0 1 0 10 0 5 5 0 1 0-10 0zm-520 60a5 5 0 1 0 10 0 5 5 0 1 0-10 0zm840-80a5 5 0 1 0 10 0 5 5 0 1 0-10 0zm-800 80a5 5 0 1 0 10 0 5 5 0 1 0-10 0zm880-80a5 5 0 1 0 10 0 5 5 0 1 0-10 0zm-640 60a5 5 0 1 0 10 0 5 5 0 1 0-10 0zm220-20a5 5 0 1 0 10 0 5 5 0 1 0-10 0z" fill="url(&quot;#c&quot;)"/><path d="M1950 290h-100" stroke="url(&quot;#c&quot;)" stroke-width="3.33"/><path d="M1845 290a5 5 0 1 0 10 0 5 5 0 1 0-10 0z" fill="url(&quot;#c&quot;)"/><path d="m330 870-20-20h-80m440 40-20 20H490l-20 20H350l-20 20h-60l-20 20H150m1160-120-20 20h-120l-20 20m200-40-20 20h-20l-20 20h-80m-440 20h-20l-20 20-20 20h-20m-460-80H130m1620-80-20 20h-20l-20-20h-120l-20 20-20 20h-80l-20 20h-40l-20 20h-20l-20 20h-20l-20 20h-80m-800-20-20 20h-40m1480-120-20 20-20 20h-120l-20 20h-200l-20 20h-40m-260 20-20 20-20 20H990l-20 20H830l-20-20h-60l-20 20-20 20H570m520-60-20-20h-80l-20 20h-20l-20-20h-40m-240 0-20-20H510l-20-20H370m1420-60-20 20h-20M830 910l-20-20h-40l-20-20H650l-20-20H510m920-40-20 20m-300 60-20-20h-40l-20-20h-20l-20 20m-740 0-20 20-20 20h-60l-20-20m1780-140-20 20-20 20h-20l-20 20-20 20-20 20h-120l-20 20-20 20h-20l-20 20h-20l-20 20h-80l-20-20h-140l-20 20h-120m-680-40-20-20H350m0 20H250l-20 20-20 20m700-20-20 20h-60m320-60h-40m840-120h-60l-20 20h-20l-20 20h-120l-20-20h-120l-20 20-20 20h-120l-20 20-20 20h-200l-20 20-20 20h-20l-20 20H990l-20 20h-20l-20-20H770l-20-20H350l-20-20H230l-20-20h-40" stroke="url(&quot;#c&quot;)" stroke-width="3.33"/><path d="M165 850a5 5 0 1 0 10 0 5 5 0 1 0-10 0zm60 0a5 5 0 1 0 10 0 5 5 0 1 0-10 0zm-80 120a5 5 0 1 0 10 0 5 5 0 1 0-10 0zm1000-80a5 5 0 1 0 10 0 5 5 0 1 0-10 0zm60 0a5 5 0 1 0 10 0 5 5 0 1 0-10 0zm-520 60a5 5 0 1 0 10 0 5 5 0 1 0-10 0zm-560-80a5 5 0 1 0 10 0 5 5 0 1 0-10 0zm1080 40a5 5 0 1 0 10 0 5 5 0 1 0-10 0zm-860 0a5 5 0 1 0 10 0 5 5 0 1 0-10 0zm1040-40a5 5 0 1 0 10 0 5 5 0 1 0-10 0zM565 970a5 5 0 1 0 10 0 5 5 0 1 0-10 0zm320-80a5 5 0 1 0 10 0 5 5 0 1 0-10 0zm-520-40a5 5 0 1 0 10 0 5 5 0 1 0-10 0zm1380-40a5 5 0 1 0 10 0 5 5 0 1 0-10 0zM505 850a5 5 0 1 0 10 0 5 5 0 1 0-10 0zm900-20a5 5 0 1 0 10 0 5 5 0 1 0-10 0zm-420 40a5 5 0 1 0 10 0 5 5 0 1 0-10 0zm-860 20a5 5 0 1 0 10 0 5 5 0 1 0-10 0zm1040 40a5 5 0 1 0 10 0 5 5 0 1 0-10 0zm-820-60a5 5 0 1 0 10 0 5 5 0 1 0-10 0zm-140 60a5 5 0 1 0 10 0 5 5 0 1 0-10 0zm620 0a5 5 0 1 0 10 0 5 5 0 1 0-10 0zm280-60a5 5 0 1 0 10 0 5 5 0 1 0-10 0z" fill="url(&quot;#c&quot;)"/><path d="m1250 210-20-20h-120m280 40-20-20-20-20h-100l-20-20h-80l-20-20m280 60h-20m60 0-20-20h-60l-20-20h-100l-20-20h-40m-280 40-20-20H730l-20-20h-60l-20-20H350m760 100-20-20h-40m-340 0-20-20h-80m940 40-20-20-20-20h-60l-20-20h-20l-20-20h-40m180 80h-20m-540-20-20-20-20-20h-20l-20-20h-80m900 80-20-20h-20l-20-20-20-20h-20l-20 20h-60l-20-20h-60l-20-20m420 120-20-20m-820-40-20-20h-20l-20-20-20-20h-20l-20-20H730m480 100-20-20h-80m180 0-20 20h-40m380 0-20-20h-40m100 20-20-20h-20m-260 0-20 20h-40l-20 20h-40m720 20h-160l-20-20-20-20h-220l-20-20h-100l-20 20h-20l-20-20h-120l-20 20h-180l-20-20h-60l-20-20H730l-20 20H610l-20-20h-60" stroke="url(&quot;#c&quot;)" stroke-width="3.33"/><path d="M525 190a5 5 0 1 0 10 0 5 5 0 1 0-10 0zm580 0a5 5 0 1 0 10 0 5 5 0 1 0-10 0zm20-40a5 5 0 1 0 10 0 5 5 0 1 0-10 0zm260 60a5 5 0 1 0 10 0 5 5 0 1 0-10 0zm-200-60a5 5 0 1 0 10 0 5 5 0 1 0-10 0zm-840-20a5 5 0 1 0 10 0 5 5 0 1 0-10 0zm700 80a5 5 0 1 0 10 0 5 5 0 1 0-10 0zm-440-20a5 5 0 1 0 10 0 5 5 0 1 0-10 0zm740-40a5 5 0 1 0 10 0 5 5 0 1 0-10 0zm160 80a5 5 0 1 0 10 0 5 5 0 1 0-10 0zm-700-80a5 5 0 1 0 10 0 5 5 0 1 0-10 0zm620 0a5 5 0 1 0 10 0 5 5 0 1 0-10 0zm400 100a5 5 0 1 0 10 0 5 5 0 1 0-10 0zM725 130a5 5 0 1 0 10 0 5 5 0 1 0-10 0zm380 80a5 5 0 1 0 10 0 5 5 0 1 0-10 0zm120 20a5 5 0 1 0 10 0 5 5 0 1 0-10 0zm320-20a5 5 0 1 0 10 0 5 5 0 1 0-10 0zm60 0a5 5 0 1 0 10 0 5 5 0 1 0-10 0zm-380 40a5 5 0 1 0 10 0 5 5 0 1 0-10 0z" fill="url(&quot;#c&quot;)"/></g></g><defs><mask id="a"><path fill="#fff" d="M0 0h1920v1024H0z"/></mask><mask id="b"><path fill="#fff" d="M0 0h1920v1024H0z"/><path d="M1207.5 550a2.5 2.5 0 1 0 5 0 2.5 2.5 0 1 0-5 0zm340-20a2.5 2.5 0 1 0 5 0 2.5 2.5 0 1 0-5 0zm220 0a2.5 2.5 0 1 0 5 0 2.5 2.5 0 1 0-5 0zm-400 0a2.5 2.5 0 1 0 5 0 2.5 2.5 0 1 0-5 0zm260-40a2.5 2.5 0 1 0 5 0 2.5 2.5 0 1 0-5 0zm-140 40a2.5 2.5 0 1 0 5 0 2.5 2.5 0 1 0-5 0zm-380 20a2.5 2.5 0 1 0 5 0 2.5 2.5 0 1 0-5 0zm400-20a2.5 2.5 0 1 0 5 0 2.5 2.5 0 1 0-5 0zm-280 0a2.5 2.5 0 1 0 5 0 2.5 2.5 0 1 0-5 0zm360-20a2.5 2.5 0 1 0 5 0 2.5 2.5 0 1 0-5 0zm-960 120a2.5 2.5 0 1 0 5 0 2.5 2.5 0 1 0-5 0zm500-40a2.5 2.5 0 1 0 5 0 2.5 2.5 0 1 0-5 0zm-420 20a2.5 2.5 0 1 0 5 0 2.5 2.5 0 1 0-5 0zm500-40a2.5 2.5 0 1 0 5 0 2.5 2.5 0 1 0-5 0zm-240 60a2.5 2.5 0 1 0 5 0 2.5 2.5 0 1 0-5 0zm-40 0a2.5 2.5 0 1 0 5 0 2.5 2.5 0 1 0-5 0zm0-40a2.5 2.5 0 1 0 5 0 2.5 2.5 0 1 0-5 0zm760-60a2.5 2.5 0 1 0 5 0 2.5 2.5 0 1 0-5 0zm-860 40a2.5 2.5 0 1 0 5 0 2.5 2.5 0 1 0-5 0zm-600-60a2.5 2.5 0 1 0 5 0 2.5 2.5 0 1 0-5 0zm1120 100a2.5 2.5 0 1 0 5 0 2.5 2.5 0 1 0-5 0zm360-80a2.5 2.5 0 1 0 5 0 2.5 2.5 0 1 0-5 0zm-260 60a2.5 2.5 0 1 0 5 0 2.5 2.5 0 1 0-5 0zm-1000-20a2.5 2.5 0 1 0 5 0 2.5 2.5 0 1 0-5 0zm600 60a2.5 2.5 0 1 0 5 0 2.5 2.5 0 1 0-5 0zm260-40a2.5 2.5 0 1 0 5 0 2.5 2.5 0 1 0-5 0zm-340-20a2.5 2.5 0 1 0 5 0 2.5 2.5 0 1 0-5 0zm-420 80a2.5 2.5 0 1 0 5 0 2.5 2.5 0 1 0-5 0zm0 20a2.5 2.5 0 1 0 5 0 2.5 2.5 0 1 0-5 0zm480 0a2.5 2.5 0 1 0 5 0 2.5 2.5 0 1 0-5 0zm360-40a2.5 2.5 0 1 0 5 0 2.5 2.5 0 1 0-5 0zm220-40a2.5 2.5 0 1 0 5 0 2.5 2.5 0 1 0-5 0zm-1140 20a2.5 2.5 0 1 0 5 0 2.5 2.5 0 1 0-5 0zm1260-60a2.5 2.5 0 1 0 5 0 2.5 2.5 0 1 0-5 0zm100 40a2.5 2.5 0 1 0 5 0 2.5 2.5 0 1 0-5 0zm-1240 40a2.5 2.5 0 1 0 5 0 2.5 2.5 0 1 0-5 0zm200 40a2.5 2.5 0 1 0 5 0 2.5 2.5 0 1 0-5 0zm1000-80a2.5 2.5 0 1 0 5 0 2.5 2.5 0 1 0-5 0zm-300 0a2.5 2.5 0 1 0 5 0 2.5 2.5 0 1 0-5 0zm-420 40a2.5 2.5 0 1 0 5 0 2.5 2.5 0 1 0-5 0zm200 20a2.5 2.5 0 1 0 5 0 2.5 2.5 0 1 0-5 0zm620-60a2.5 2.5 0 1 0 5 0 2.5 2.5 0 1 0-5 0zm-520 20a2.5 2.5 0 1 0 5 0 2.5 2.5 0 1 0-5 0zm80-100a2.5 2.5 0 1 0 5 0 2.5 2.5 0 1 0-5 0zm320-40a2.5 2.5 0 1 0 5 0 2.5 2.5 0 1 0-5 0zm20 0a2.5 2.5 0 1 0 5 0 2.5 2.5 0 1 0-5 0zm20 20a2.5 2.5 0 1 0 5 0 2.5 2.5 0 1 0-5 0zm-180-20a2.5 2.5 0 1 0 5 0 2.5 2.5 0 1 0-5 0zm-240 20a2.5 2.5 0 1 0 5 0 2.5 2.5 0 1 0-5 0zm300-20a2.5 2.5 0 1 0 5 0 2.5 2.5 0 1 0-5 0zm-360 180a2.5 2.5 0 1 0 5 0 2.5 2.5 0 1 0-5 0zm580-60a2.5 2.5 0 1 0 5 0 2.5 2.5 0 1 0-5 0zm-460 40a2.5 2.5 0 1 0 5 0 2.5 2.5 0 1 0-5 0zm-120-240a2.5 2.5 0 1 0 5 0 2.5 2.5 0 1 0-5 0zm40-20a2.5 2.5 0 1 0 5 0 2.5 2.5 0 1 0-5 0zm-140 20a2.5 2.5 0 1 0 5 0 2.5 2.5 0 1 0-5 0zm100 40a2.5 2.5 0 1 0 5 0 2.5 2.5 0 1 0-5 0zm440-20a2.5 2.5 0 1 0 5 0 2.5 2.5 0 1 0-5 0zm-240 20a2.5 2.5 0 1 0 5 0 2.5 2.5 0 1 0-5 0zm-220-60a2.5 2.5 0 1 0 5 0 2.5 2.5 0 1 0-5 0zm80 80a2.5 2.5 0 1 0 5 0 2.5 2.5 0 1 0-5 0zm-60 20a2.5 2.5 0 1 0 5 0 2.5 2.5 0 1 0-5 0zm-1140 240a2.5 2.5 0 1 0 5 0 2.5 2.5 0 1 0-5 0zm1700-60a2.5 2.5 0 1 0 5 0 2.5 2.5 0 1 0-5 0zm-300 0a2.5 2.5 0 1 0 5 0 2.5 2.5 0 1 0-5 0zm-920 60a2.5 2.5 0 1 0 5 0 2.5 2.5 0 1 0-5 0zm420 0a2.5 2.5 0 1 0 5 0 2.5 2.5 0 1 0-5 0zm-280 0a2.5 2.5 0 1 0 5 0 2.5 2.5 0 1 0-5 0zm680-40a2.5 2.5 0 1 0 5 0 2.5 2.5 0 1 0-5 0zm220 0a2.5 2.5 0 1 0 5 0 2.5 2.5 0 1 0-5 0zm-540 20a2.5 2.5 0 1 0 5 0 2.5 2.5 0 1 0-5 0zm-940 40a2.5 2.5 0 1 0 5 0 2.5 2.5 0 1 0-5 0zm600-20a2.5 2.5 0 1 0 5 0 2.5 2.5 0 1 0-5 0zm460-20a2.5 2.5 0 1 0 5 0 2.5 2.5 0 1 0-5 0zm-1040-20a2.5 2.5 0 1 0 5 0 2.5 2.5 0 1 0-5 0zm1500-20a2.5 2.5 0 1 0 5 0 2.5 2.5 0 1 0-5 0zm60 0a2.5 2.5 0 1 0 5 0 2.5 2.5 0 1 0-5 0zm-920 60a2.5 2.5 0 1 0 5 0 2.5 2.5 0 1 0-5 0zm-560 20a2.5 2.5 0 1 0 5 0 2.5 2.5 0 1 0-5 0zm120 0a2.5 2.5 0 1 0 5 0 2.5 2.5 0 1 0-5 0zm-60 0a2.5 2.5 0 1 0 5 0 2.5 2.5 0 1 0-5 0zm-60-20a2.5 2.5 0 1 0 5 0 2.5 2.5 0 1 0-5 0zm40 40a2.5 2.5 0 1 0 5 0 2.5 2.5 0 1 0-5 0zm500-80a2.5 2.5 0 1 0 5 0 2.5 2.5 0 1 0-5 0zm20 0a2.5 2.5 0 1 0 5 0 2.5 2.5 0 1 0-5 0zm-300-360a2.5 2.5 0 1 0 5 0 2.5 2.5 0 1 0-5 0zm580 40a2.5 2.5 0 1 0 5 0 2.5 2.5 0 1 0-5 0zm-380-60a2.5 2.5 0 1 0 5 0 2.5 2.5 0 1 0-5 0zm660 60a2.5 2.5 0 1 0 5 0 2.5 2.5 0 1 0-5 0zm-60 20a2.5 2.5 0 1 0 5 0 2.5 2.5 0 1 0-5 0zm-200 0a2.5 2.5 0 1 0 5 0 2.5 2.5 0 1 0-5 0zm260 20a2.5 2.5 0 1 0 5 0 2.5 2.5 0 1 0-5 0zm-460-60a2.5 2.5 0 1 0 5 0 2.5 2.5 0 1 0-5 0zm-380 20a2.5 2.5 0 1 0 5 0 2.5 2.5 0 1 0-5 0zm240-60a2.5 2.5 0 1 0 5 0 2.5 2.5 0 1 0-5 0zm-220 20a2.5 2.5 0 1 0 5 0 2.5 2.5 0 1 0-5 0zm200-40a2.5 2.5 0 1 0 5 0 2.5 2.5 0 1 0-5 0zm640 80a2.5 2.5 0 1 0 5 0 2.5 2.5 0 1 0-5 0zm-680-20a2.5 2.5 0 1 0 5 0 2.5 2.5 0 1 0-5 0zm560 20a2.5 2.5 0 1 0 5 0 2.5 2.5 0 1 0-5 0zm-500-20a2.5 2.5 0 1 0 5 0 2.5 2.5 0 1 0-5 0zm660 20a2.5 2.5 0 1 0 5 0 2.5 2.5 0 1 0-5 0zm-200 0a2.5 2.5 0 1 0 5 0 2.5 2.5 0 1 0-5 0zm-1100 420a2.5 2.5 0 1 0 5 0 2.5 2.5 0 1 0-5 0zm0-20a2.5 2.5 0 1 0 5 0 2.5 2.5 0 1 0-5 0zm20 0a2.5 2.5 0 1 0 5 0 2.5 2.5 0 1 0-5 0zm700-40a2.5 2.5 0 1 0 5 0 2.5 2.5 0 1 0-5 0zm580-40a2.5 2.5 0 1 0 5 0 2.5 2.5 0 1 0-5 0zm-560 80a2.5 2.5 0 1 0 5 0 2.5 2.5 0 1 0-5 0zm880-100a2.5 2.5 0 1 0 5 0 2.5 2.5 0 1 0-5 0zm-660 80a2.5 2.5 0 1 0 5 0 2.5 2.5 0 1 0-5 0zm-620 20a2.5 2.5 0 1 0 5 0 2.5 2.5 0 1 0-5 0zm580-40a2.5 2.5 0 1 0 5 0 2.5 2.5 0 1 0-5 0zm-560 40a2.5 2.5 0 1 0 5 0 2.5 2.5 0 1 0-5 0zm960-80a2.5 2.5 0 1 0 5 0 2.5 2.5 0 1 0-5 0zm-580 40a2.5 2.5 0 1 0 5 0 2.5 2.5 0 1 0-5 0zm520 0a2.5 2.5 0 1 0 5 0 2.5 2.5 0 1 0-5 0zm380-60a2.5 2.5 0 1 0 5 0 2.5 2.5 0 1 0-5 0zm-1580 120a2.5 2.5 0 1 0 5 0 2.5 2.5 0 1 0-5 0zm1040-80a2.5 2.5 0 1 0 5 0 2.5 2.5 0 1 0-5 0zm-260 20a2.5 2.5 0 1 0 5 0 2.5 2.5 0 1 0-5 0zm320-20a2.5 2.5 0 1 0 5 0 2.5 2.5 0 1 0-5 0zm-780 40a2.5 2.5 0 1 0 5 0 2.5 2.5 0 1 0-5 0zm-300 40a2.5 2.5 0 1 0 5 0 2.5 2.5 0 1 0-5 0zm1440-100a2.5 2.5 0 1 0 5 0 2.5 2.5 0 1 0-5 0zm-720 40a2.5 2.5 0 1 0 5 0 2.5 2.5 0 1 0-5 0zm-200-460a2.5 2.5 0 1 0 5 0 2.5 2.5 0 1 0-5 0zm880 80a2.5 2.5 0 1 0 5 0 2.5 2.5 0 1 0-5 0zm-800-80a2.5 2.5 0 1 0 5 0 2.5 2.5 0 1 0-5 0zm60 20a2.5 2.5 0 1 0 5 0 2.5 2.5 0 1 0-5 0zm100 20a2.5 2.5 0 1 0 5 0 2.5 2.5 0 1 0-5 0zm-40-20a2.5 2.5 0 1 0 5 0 2.5 2.5 0 1 0-5 0zm880 80a2.5 2.5 0 1 0 5 0 2.5 2.5 0 1 0-5 0zm-1060-100a2.5 2.5 0 1 0 5 0 2.5 2.5 0 1 0-5 0zm780 100a2.5 2.5 0 1 0 5 0 2.5 2.5 0 1 0-5 0zm20-40a2.5 2.5 0 1 0 5 0 2.5 2.5 0 1 0-5 0zm-660-40a2.5 2.5 0 1 0 5 0 2.5 2.5 0 1 0-5 0zm600 40a2.5 2.5 0 1 0 5 0 2.5 2.5 0 1 0-5 0zm80 40a2.5 2.5 0 1 0 5 0 2.5 2.5 0 1 0-5 0zm200 20a2.5 2.5 0 1 0 5 0 2.5 2.5 0 1 0-5 0zm-920-120a2.5 2.5 0 1 0 5 0 2.5 2.5 0 1 0-5 0zm-760-20a2.5 2.5 0 1 0 5 0 2.5 2.5 0 1 0-5 0zm20 20a2.5 2.5 0 1 0 5 0 2.5 2.5 0 1 0-5 0zm1220 40a2.5 2.5 0 1 0 5 0 2.5 2.5 0 1 0-5 0zm-1280-160a2.5 2.5 0 1 0 5 0 2.5 2.5 0 1 0-5 0zm160 100a2.5 2.5 0 1 0 5 0 2.5 2.5 0 1 0-5 0zm820 20a2.5 2.5 0 1 0 5 0 2.5 2.5 0 1 0-5 0zm220 20a2.5 2.5 0 1 0 5 0 2.5 2.5 0 1 0-5 0zm-720-20a2.5 2.5 0 1 0 5 0 2.5 2.5 0 1 0-5 0zm-480-40a2.5 2.5 0 1 0 5 0 2.5 2.5 0 1 0-5 0zm1360 80a2.5 2.5 0 1 0 5 0 2.5 2.5 0 1 0-5 0zm300 40a2.5 2.5 0 1 0 5 0 2.5 2.5 0 1 0-5 0zm-340-40a2.5 2.5 0 1 0 5 0 2.5 2.5 0 1 0-5 0zm300 20a2.5 2.5 0 1 0 5 0 2.5 2.5 0 1 0-5 0zm-1360-140a2.5 2.5 0 1 0 5 0 2.5 2.5 0 1 0-5 0zm1380 140a2.5 2.5 0 1 0 5 0 2.5 2.5 0 1 0-5 0zm-1040-100a2.5 2.5 0 1 0 5 0 2.5 2.5 0 1 0-5 0zm-420-40a2.5 2.5 0 1 0 5 0 2.5 2.5 0 1 0-5 0zm840 80a2.5 2.5 0 1 0 5 0 2.5 2.5 0 1 0-5 0zm540 20a2.5 2.5 0 1 0 5 0 2.5 2.5 0 1 0-5 0zm-920-60a2.5 2.5 0 1 0 5 0 2.5 2.5 0 1 0-5 0zm740 80a2.5 2.5 0 1 0 5 0 2.5 2.5 0 1 0-5 0zm20 0a2.5 2.5 0 1 0 5 0 2.5 2.5 0 1 0-5 0zm-1040-40a2.5 2.5 0 1 0 5 0 2.5 2.5 0 1 0-5 0zm-320 540a2.5 2.5 0 1 0 5 0 2.5 2.5 0 1 0-5 0zm980 20a2.5 2.5 0 1 0 5 0 2.5 2.5 0 1 0-5 0zm-600 0a2.5 2.5 0 1 0 5 0 2.5 2.5 0 1 0-5 0zm540-20a2.5 2.5 0 1 0 5 0 2.5 2.5 0 1 0-5 0zm-800 20a2.5 2.5 0 1 0 5 0 2.5 2.5 0 1 0-5 0zm1460-100a2.5 2.5 0 1 0 5 0 2.5 2.5 0 1 0-5 0zm-680 100a2.5 2.5 0 1 0 5 0 2.5 2.5 0 1 0-5 0zm-940 20a2.5 2.5 0 1 0 5 0 2.5 2.5 0 1 0-5 0zm1280-100a2.5 2.5 0 1 0 5 0 2.5 2.5 0 1 0-5 0zm-700 60a2.5 2.5 0 1 0 5 0 2.5 2.5 0 1 0-5 0zm-540 40a2.5 2.5 0 1 0 5 0 2.5 2.5 0 1 0-5 0zm20 0a2.5 2.5 0 1 0 5 0 2.5 2.5 0 1 0-5 0zm660-60a2.5 2.5 0 1 0 5 0 2.5 2.5 0 1 0-5 0zm360 40a2.5 2.5 0 1 0 5 0 2.5 2.5 0 1 0-5 0zm-860 20a2.5 2.5 0 1 0 5 0 2.5 2.5 0 1 0-5 0zm40 0a2.5 2.5 0 1 0 5 0 2.5 2.5 0 1 0-5 0zm1420-120a2.5 2.5 0 1 0 5 0 2.5 2.5 0 1 0-5 0zm-540 100a2.5 2.5 0 1 0 5 0 2.5 2.5 0 1 0-5 0zm-240-20a2.5 2.5 0 1 0 5 0 2.5 2.5 0 1 0-5 0zm-640 20a2.5 2.5 0 1 0 5 0 2.5 2.5 0 1 0-5 0zm1080-60a2.5 2.5 0 1 0 5 0 2.5 2.5 0 1 0-5 0zm360-40a2.5 2.5 0 1 0 5 0 2.5 2.5 0 1 0-5 0zm-1400 100a2.5 2.5 0 1 0 5 0 2.5 2.5 0 1 0-5 0zm1000-40a2.5 2.5 0 1 0 5 0 2.5 2.5 0 1 0-5 0zm420-60a2.5 2.5 0 1 0 5 0 2.5 2.5 0 1 0-5 0zm20 0a2.5 2.5 0 1 0 5 0 2.5 2.5 0 1 0-5 0zm-380 40a2.5 2.5 0 1 0 5 0 2.5 2.5 0 1 0-5 0zm20 20a2.5 2.5 0 1 0 5 0 2.5 2.5 0 1 0-5 0zm-120-520a2.5 2.5 0 1 0 5 0 2.5 2.5 0 1 0-5 0zm420 40a2.5 2.5 0 1 0 5 0 2.5 2.5 0 1 0-5 0zm-340-60a2.5 2.5 0 1 0 5 0 2.5 2.5 0 1 0-5 0zm-60 0a2.5 2.5 0 1 0 5 0 2.5 2.5 0 1 0-5 0zm300 40a2.5 2.5 0 1 0 5 0 2.5 2.5 0 1 0-5 0zm20-20a2.5 2.5 0 1 0 5 0 2.5 2.5 0 1 0-5 0zm-240-20a2.5 2.5 0 1 0 5 0 2.5 2.5 0 1 0-5 0zm-60 0a2.5 2.5 0 1 0 5 0 2.5 2.5 0 1 0-5 0zm-460 560a2.5 2.5 0 1 0 5 0 2.5 2.5 0 1 0-5 0zm-40 20a2.5 2.5 0 1 0 5 0 2.5 2.5 0 1 0-5 0zm400 0a2.5 2.5 0 1 0 5 0 2.5 2.5 0 1 0-5 0zm-260 40a2.5 2.5 0 1 0 5 0 2.5 2.5 0 1 0-5 0zm40-40a2.5 2.5 0 1 0 5 0 2.5 2.5 0 1 0-5 0zm240 0a2.5 2.5 0 1 0 5 0 2.5 2.5 0 1 0-5 0zm40-20a2.5 2.5 0 1 0 5 0 2.5 2.5 0 1 0-5 0zm-520 60a2.5 2.5 0 1 0 5 0 2.5 2.5 0 1 0-5 0zm840-80a2.5 2.5 0 1 0 5 0 2.5 2.5 0 1 0-5 0zm-800 80a2.5 2.5 0 1 0 5 0 2.5 2.5 0 1 0-5 0zm880-80a2.5 2.5 0 1 0 5 0 2.5 2.5 0 1 0-5 0zm-640 60a2.5 2.5 0 1 0 5 0 2.5 2.5 0 1 0-5 0zm220-20a2.5 2.5 0 1 0 5 0 2.5 2.5 0 1 0-5 0zm480-520a2.5 2.5 0 1 0 5 0 2.5 2.5 0 1 0-5 0zm-1680 560a2.5 2.5 0 1 0 5 0 2.5 2.5 0 1 0-5 0zm60 0a2.5 2.5 0 1 0 5 0 2.5 2.5 0 1 0-5 0zm-80 120a2.5 2.5 0 1 0 5 0 2.5 2.5 0 1 0-5 0zm1000-80a2.5 2.5 0 1 0 5 0 2.5 2.5 0 1 0-5 0zm60 0a2.5 2.5 0 1 0 5 0 2.5 2.5 0 1 0-5 0zm-520 60a2.5 2.5 0 1 0 5 0 2.5 2.5 0 1 0-5 0zm-560-80a2.5 2.5 0 1 0 5 0 2.5 2.5 0 1 0-5 0zm1080 40a2.5 2.5 0 1 0 5 0 2.5 2.5 0 1 0-5 0zm-860 0a2.5 2.5 0 1 0 5 0 2.5 2.5 0 1 0-5 0zm1040-40a2.5 2.5 0 1 0 5 0 2.5 2.5 0 1 0-5 0zm-820 100a2.5 2.5 0 1 0 5 0 2.5 2.5 0 1 0-5 0zm320-80a2.5 2.5 0 1 0 5 0 2.5 2.5 0 1 0-5 0zm-520-40a2.5 2.5 0 1 0 5 0 2.5 2.5 0 1 0-5 0zm1380-40a2.5 2.5 0 1 0 5 0 2.5 2.5 0 1 0-5 0zm-1240 40a2.5 2.5 0 1 0 5 0 2.5 2.5 0 1 0-5 0zm900-20a2.5 2.5 0 1 0 5 0 2.5 2.5 0 1 0-5 0zm-420 40a2.5 2.5 0 1 0 5 0 2.5 2.5 0 1 0-5 0zm-860 20a2.5 2.5 0 1 0 5 0 2.5 2.5 0 1 0-5 0zm1040 40a2.5 2.5 0 1 0 5 0 2.5 2.5 0 1 0-5 0zm-820-60a2.5 2.5 0 1 0 5 0 2.5 2.5 0 1 0-5 0zm-140 60a2.5 2.5 0 1 0 5 0 2.5 2.5 0 1 0-5 0zm620 0a2.5 2.5 0 1 0 5 0 2.5 2.5 0 1 0-5 0zm280-60a2.5 2.5 0 1 0 5 0 2.5 2.5 0 1 0-5 0zm-580-680a2.5 2.5 0 1 0 5 0 2.5 2.5 0 1 0-5 0zm580 0a2.5 2.5 0 1 0 5 0 2.5 2.5 0 1 0-5 0zm20-40a2.5 2.5 0 1 0 5 0 2.5 2.5 0 1 0-5 0zm260 60a2.5 2.5 0 1 0 5 0 2.5 2.5 0 1 0-5 0zm-200-60a2.5 2.5 0 1 0 5 0 2.5 2.5 0 1 0-5 0zm-840-20a2.5 2.5 0 1 0 5 0 2.5 2.5 0 1 0-5 0zm700 80a2.5 2.5 0 1 0 5 0 2.5 2.5 0 1 0-5 0zm-440-20a2.5 2.5 0 1 0 5 0 2.5 2.5 0 1 0-5 0zm740-40a2.5 2.5 0 1 0 5 0 2.5 2.5 0 1 0-5 0zm160 80a2.5 2.5 0 1 0 5 0 2.5 2.5 0 1 0-5 0zm-700-80a2.5 2.5 0 1 0 5 0 2.5 2.5 0 1 0-5 0zm620 0a2.5 2.5 0 1 0 5 0 2.5 2.5 0 1 0-5 0zm400 100a2.5 2.5 0 1 0 5 0 2.5 2.5 0 1 0-5 0zm-1100-120a2.5 2.5 0 1 0 5 0 2.5 2.5 0 1 0-5 0zm380 80a2.5 2.5 0 1 0 5 0 2.5 2.5 0 1 0-5 0zm120 20a2.5 2.5 0 1 0 5 0 2.5 2.5 0 1 0-5 0zm320-20a2.5 2.5 0 1 0 5 0 2.5 2.5 0 1 0-5 0zm60 0a2.5 2.5 0 1 0 5 0 2.5 2.5 0 1 0-5 0zm-380 40a2.5 2.5 0 1 0 5 0 2.5 2.5 0 1 0-5 0z"/></mask><linearGradient x1="76.8" y1="512" x2="1920" y2="512" gradientUnits="userSpaceOnUse" id="c"><stop stop-color="rgba(195, 255, 248, 1)" offset="0"/><stop stop-color="rgba(100, 220, 255, 1)" offset="1"/></linearGradient></defs></svg>